<?xml version="1.0" standalone="no"?>
<!DOCTYPE svg PUBLIC "-//W3C//DTD SVG 20010904//EN"
 "http://www.w3.org/TR/2001/REC-SVG-20010904/DTD/svg10.dtd">
<svg version="1.0" xmlns="http://www.w3.org/2000/svg"
 width="300.000000pt" height="300.000000pt" viewBox="0 0 300.000000 300.000000"
 preserveAspectRatio="xMidYMid meet">
<metadata>
Created by potrace 1.10, written by Peter Selinger 2001-2011
</metadata>
<g transform="translate(0.000000,300.000000) scale(0.100000,-0.100000)"
fill="#000000" stroke="none">
<path d="M1295 2984 c-335 -51 -593 -177 -828 -404 -259 -249 -399 -522 -451
-881 -34 -232 -5 -500 79 -725 42 -109 130 -271 199 -364 83 -111 259 -280
366 -351 458 -305 1025 -342 1513 -98 192 96 401 272 533 449 228 306 333 716
278 1089 -49 338 -175 597 -404 834 -249 259 -522 399 -881 451 -128 19 -281
19 -404 0z m-480 -487 c53 -19 103 -66 131 -123 53 -109 14 -244 -90 -308 -95
-59 -215 -46 -296 32 -190 185 5 491 255 399z m1370 -642 c166 -44 258 -146
307 -343 21 -83 22 -107 23 -557 l0 -470 -210 0 -210 0 -5 430 c-4 385 -7 434
-23 470 -37 82 -92 115 -194 115 -108 -1 -179 -44 -220 -135 -16 -36 -19 -83
-23 -460 l-5 -420 -210 0 -210 0 -3 678 -2 677 205 0 205 0 0 -92 0 -91 29 40
c30 42 98 101 141 123 95 50 284 66 405 35z m-1245 -695 l0 -680 -210 0 -210
0 0 680 0 680 210 0 210 0 0 -680z"/>
</g>
</svg>
