<svg version="1.0" xmlns="http://www.w3.org/2000/svg"
 width="300.000000pt" height="239.000000pt" viewBox="0 0 300.000000 239.000000"
 preserveAspectRatio="xMidYMid meet">
<metadata>
Created by potrace 1.10, written by Peter Selinger 2001-2011
</metadata>
<g transform="translate(0.000000,239.000000) scale(0.100000,-0.100000)"
fill="#000000" stroke="none">
<path d="M2861 2323 c-27 -38 -48 -69 -46 -71 2 -2 44 -9 93 -16 l90 -12 -19
47 c-39 100 -48 119 -58 119 -6 0 -33 -30 -60 -67z m87 -1 c29 -76 29 -85 -5
-78 -16 2 -45 7 -65 11 -21 3 -38 8 -38 11 0 8 74 114 80 114 3 0 15 -26 28
-58z"/>
<path d="M1763 2361 c-17 -11 -37 -35 -44 -54 -7 -21 -24 -41 -44 -51 -32 -17
-55 -52 -55 -81 0 -28 25 -67 51 -81 35 -18 295 -20 333 -3 31 15 56 65 49
102 -6 29 -55 77 -79 77 -8 0 -14 10 -14 25 0 69 -124 110 -197 66z m137 -15
c14 -6 34 -29 45 -50 11 -21 29 -42 40 -46 52 -19 68 -83 32 -125 l-24 -29
-154 2 c-152 2 -154 2 -176 27 -39 44 -27 89 32 124 20 11 35 28 35 39 0 24
39 61 76 72 30 9 53 5 94 -14z"/>
<path d="M1983 2360 c-32 -13 -29 -22 3 -10 75 29 187 -6 222 -69 12 -21 22
-46 22 -55 0 -9 15 -22 33 -30 19 -7 46 -26 60 -40 48 -48 31 -155 -31 -188
-19 -10 -80 -13 -236 -13 -238 0 -248 3 -285 73 -11 20 -20 31 -21 24 0 -27
34 -70 71 -92 37 -20 49 -21 253 -18 l215 3 31 30 c41 39 56 91 41 138 -13 40
-59 84 -97 93 -16 4 -24 13 -24 29 0 36 -42 88 -90 113 -47 23 -125 29 -167
12z"/>
<path d="M2650 2275 c0 -17 5 -25 13 -22 6 2 12 12 12 22 0 10 -6 20 -12 23
-8 2 -13 -6 -13 -23z"/>
<path d="M831 2167 l32 -65 -37 -51 c-35 -48 -40 -51 -79 -50 -77 2 -88 9
-118 79 l-28 65 -15 -37 c-53 -125 26 -274 162 -303 28 -6 38 -17 69 -78 42
-84 56 -77 18 9 -32 73 -51 94 -85 94 -73 0 -160 106 -160 197 0 54 14 55 40
3 23 -45 42 -53 120 -48 54 3 55 4 94 60 l39 57 -17 42 c-9 23 -15 44 -12 46
10 10 59 -33 83 -75 35 -60 37 -143 3 -196 l-22 -37 51 -114 c50 -111 51 -115
40 -160 -6 -25 -9 -48 -6 -51 2 -3 10 18 17 45 11 47 23 63 32 43 2 -5 15 -12
30 -16 23 -5 31 -1 55 31 15 21 42 55 60 76 32 36 44 77 23 77 -22 0 -8 16 32
38 l42 22 26 -25 c25 -24 30 -25 71 -16 24 6 61 11 81 11 30 0 42 6 59 29 21
29 23 29 50 15 16 -8 31 -14 34 -14 3 0 9 0 15 0 5 0 7 -12 4 -27 -4 -20 1
-35 16 -50 11 -13 24 -23 28 -23 4 0 28 -18 52 -40 42 -38 52 -41 90 -26 10 4
21 -6 33 -30 22 -45 22 -48 -8 -78 -23 -23 -24 -28 -13 -48 13 -23 13 -22 16
9 2 23 10 34 32 43 l29 12 -31 57 c-42 75 -42 75 -72 56 -25 -16 -26 -16 -63
20 -21 20 -50 44 -66 53 -23 14 -27 22 -22 42 4 13 7 29 8 33 2 10 -132 57
-137 48 -2 -3 -6 -18 -10 -33 -6 -26 -10 -28 -59 -28 -29 0 -67 -4 -85 -9 -30
-9 -33 -7 -47 20 -9 16 -18 29 -20 29 -4 0 -112 -58 -123 -66 -2 -1 4 -14 13
-28 17 -25 16 -26 -25 -73 -23 -27 -47 -58 -52 -69 -9 -19 -14 -20 -46 -11
-29 9 -39 20 -57 62 -13 27 -34 74 -49 104 l-26 54 23 36 c34 55 31 150 -6
214 -29 49 -82 91 -130 103 l-28 6 32 -65z"/>
<path d="M2884 2195 c-7 -17 4 -37 17 -30 12 8 12 45 -1 45 -6 0 -13 -7 -16
-15z"/>
<path d="M2647 2144 c-11 -11 -8 -44 3 -44 15 0 24 30 13 41 -5 5 -12 6 -16 3z"/>
<path d="M2857 2064 c-10 -10 -9 -44 2 -44 13 0 23 32 13 42 -5 5 -11 5 -15 2z"/>
<path d="M2617 1994 c-10 -10 -9 -44 2 -44 13 0 23 32 13 42 -5 5 -11 5 -15 2z"/>
<path d="M2800 1901 c-6 -13 -6 -22 -1 -26 9 -5 31 24 31 39 0 14 -20 4 -30
-13z"/>
<path d="M2560 1840 c-8 -15 -9 -25 -2 -32 7 -7 14 -3 22 12 8 15 9 25 2 32
-7 7 -14 3 -22 -12z"/>
<path d="M605 1777 c-6 -23 -12 -26 -68 -29 -58 -3 -71 1 -80 27 -2 6 -24 0
-51 -13 -28 -13 -46 -28 -43 -35 3 -7 8 -20 12 -29 4 -10 3 -18 -3 -18 -6 0
-25 -20 -43 -45 -27 -38 -35 -43 -51 -34 -11 6 -21 9 -22 7 -3 -3 -36 -99 -36
-104 0 -1 10 -4 23 -6 19 -3 23 -11 29 -68 7 -63 4 -72 -26 -83 -5 -1 2 -23
14 -47 28 -57 25 -54 49 -40 19 9 27 6 63 -24 23 -20 46 -36 51 -36 8 0 7 -6
-10 -46 -2 -7 11 -14 31 -18 l36 -7 0 -424 c0 -412 1 -426 20 -445 20 -20 20
-20 -3 -20 -12 0 -81 -25 -152 -55 -210 -89 -205 -86 -205 -121 0 -16 5 -35
12 -42 9 -9 312 -12 1304 -12 l1292 0 28 38 29 37 3 437 c2 382 1 442 -13 468
-11 21 -13 36 -6 47 6 12 5 20 -4 28 -19 15 -27 82 -9 89 11 4 11 10 -4 35
-12 21 -20 27 -28 20 -14 -12 -71 36 -66 56 1 7 -12 18 -29 24 -40 14 -39 14
-39 -3 0 -19 -72 -28 -83 -9 -12 19 -69 -11 -61 -32 4 -8 1 -21 -5 -29 -6 -7
-9 -20 -7 -27 3 -8 1 -30 -3 -49 l-9 -35 -2 45 c-1 25 -1 108 0 185 1 130 0
142 -20 168 l-21 27 -269 0 -268 0 1 -59 c0 -52 3 -60 21 -65 12 -3 119 -6
239 -6 l217 0 0 -177 0 -177 -27 -29 -28 -28 -3 -270 -3 -269 -849 0 -850 0 0
475 0 476 238 -1 c130 -1 238 1 240 4 1 3 2 28 2 54 0 48 -1 49 -39 60 -21 7
-83 12 -138 12 l-100 0 -6 28 c-8 36 -55 86 -107 113 -121 63 -272 9 -325
-118 -20 -46 -21 -140 -1 -187 21 -51 84 -116 112 -116 22 0 24 -4 24 -55 0
-30 -4 -55 -9 -55 -15 0 -33 29 -26 41 12 18 -94 109 -127 109 -37 0 -56 34
-34 59 21 24 11 146 -14 164 -16 11 -19 41 -5 55 3 3 16 7 28 9 12 2 29 13 37
25 8 13 27 37 43 54 15 18 25 38 22 46 -4 9 4 22 20 32 23 15 27 15 40 2 10
-10 34 -15 68 -14 55 1 85 11 103 37 9 12 15 13 26 3 8 -6 18 -9 21 -5 4 3 7
-5 7 -18 0 -16 13 -37 36 -57 20 -18 38 -32 41 -32 2 0 11 -6 19 -14 7 -8 23
-12 34 -9 38 10 71 -47 35 -61 -8 -3 -15 -10 -15 -16 0 -6 12 -4 30 5 26 14
30 13 38 -1 6 -11 11 -13 16 -5 4 6 0 14 -8 17 -8 3 -27 26 -41 51 -20 33 -31
43 -43 38 -10 -4 -19 -7 -23 -8 -3 -1 -26 17 -53 40 -41 36 -46 44 -37 62 10
18 7 21 -29 31 -23 6 -48 14 -55 16 -9 4 -16 -3 -20 -19z m18 -111 c25 -7 58
-23 73 -35 26 -20 74 -83 74 -95 0 -4 -55 -6 -123 -6 -170 0 -167 3 -167 -151
0 -70 -4 -119 -10 -119 -5 0 -25 14 -45 32 -106 93 -100 262 12 342 63 44 116
53 186 32z m375 -161 c12 -3 22 -12 22 -20 0 -8 5 -15 10 -15 6 0 10 -12 10
-27 0 -22 -2 -25 -10 -13 -6 10 -10 11 -10 3 0 -10 -50 -13 -218 -13 -156 0
-221 -3 -230 -12 -17 -17 -17 -949 0 -966 9 -9 118 -12 430 -12 230 0 418 -4
418 -8 0 -4 -5 -13 -12 -20 -14 -14 -18 -71 -6 -95 10 -20 87 -24 106 -5 17
17 15 84 -3 102 -8 8 -15 17 -15 20 0 3 176 6 390 6 364 0 390 -1 391 -17 0
-14 2 -15 6 -3 2 8 9 24 14 35 5 11 10 54 12 95 2 41 4 -13 5 -120 1 -175 0
-193 -14 -175 -14 19 -31 19 -885 20 -795 1 -871 3 -889 18 -19 16 -19 34 -17
609 2 588 2 592 23 603 21 10 431 19 472 10z m1400 -22 c8 -12 12 -43 10 -93
-3 -67 -5 -75 -23 -75 -11 0 -23 7 -27 15 -10 22 -9 80 1 80 17 0 20 44 5 61
-14 16 -17 16 -44 1 -16 -9 -28 -19 -28 -22 2 -29 -5 -30 -200 -30 -152 0
-199 3 -200 13 -1 6 -3 23 -4 37 l-3 25 210 5 c266 6 286 5 303 -17z m-38 -31
c0 -5 -9 -17 -19 -26 -22 -20 -40 -4 -21 19 13 16 40 20 40 7z m40 -165 c0
-14 -20 -37 -32 -37 -12 0 -10 24 4 38 16 16 28 15 28 -1z m247 -24 c-4 -3 -2
-12 3 -18 8 -9 4 -11 -15 -7 -20 3 -23 7 -14 18 6 8 16 14 22 14 6 0 7 -3 4
-7z m-123 -22 c3 -5 0 -11 -8 -14 -8 -3 -17 1 -20 9 -6 15 19 20 28 5z m-115
-38 c1 -21 4 -54 5 -73 2 -19 -1 -43 -6 -53 -6 -12 -4 -19 7 -24 9 -3 21 -16
26 -29 8 -23 13 -24 104 -24 76 0 97 3 101 15 8 20 87 20 104 0 6 -8 9 -18 7
-22 -3 -5 -103 -8 -221 -7 -246 3 -222 12 -229 -91 l-3 -50 -2 57 c-2 66 12
113 30 102 7 -4 10 -4 6 1 -4 4 -2 15 5 23 7 10 12 48 12 106 0 63 4 91 12 91
6 0 15 3 19 8 14 14 20 7 23 -30z m242 2 c40 -21 69 -71 69 -118 l0 -38 -140
2 -140 1 6 26 c12 52 44 107 71 124 35 22 95 23 134 3z m94 -53 c-3 -4 -10 0
-15 8 -6 9 -5 17 3 22 13 8 24 -19 12 -30z m31 -119 c-8 -9 -46 18 -40 28 4 6
13 4 25 -7 11 -9 17 -19 15 -21z m-146 -13 c0 -6 -35 -10 -85 -10 -50 0 -85 4
-85 10 0 6 35 10 85 10 50 0 85 -4 85 -10z m130 -480 l0 -430 -215 0 -215 0 0
430 0 430 215 0 215 0 0 -430z m-453 133 c-2 -27 -3 -5 -3 47 0 52 1 74 3 48
2 -27 2 -69 0 -95z m-807 -320 l0 -43 -45 0 -45 0 0 43 0 42 45 0 45 0 0 -42z
m780 -172 c0 -33 2 -66 5 -73 5 -12 -146 -15 -1032 -16 -571 -1 -1047 2 -1058
5 -15 5 -4 11 40 23 37 10 62 13 66 7 4 -5 9 -5 13 2 5 8 279 11 976 11 635 0
971 3 975 10 4 6 -13 10 -44 10 -43 0 -58 6 -97 35 -44 34 -72 46 -59 25 9
-15 -178 -13 -193 2 -8 8 -12 9 -12 1 0 -6 7 -19 17 -28 22 -22 3 -35 -53 -35
-36 0 -45 5 -70 37 -15 20 -30 31 -32 25 -5 -17 -192 -17 -193 1 -1 6 -4 -4
-8 -23 l-6 -34 -60 0 -60 -1 -6 35 c-4 19 -7 29 -8 23 -2 -18 -191 -18 -191 0
-1 6 -13 -3 -29 -20 -25 -30 -32 -33 -85 -33 -57 0 -57 0 -42 22 19 26 21 47
4 30 -15 -15 -202 -17 -193 -2 11 19 -11 10 -51 -19 -37 -28 -134 -53 -134
-35 0 5 12 17 26 29 l25 20 -113 -3 c-104 -2 -111 -1 -88 12 22 13 145 15 898
16 l872 0 0 -59z m-1630 9 c-8 -5 -62 -10 -120 -10 -71 0 -100 3 -90 10 8 5
62 10 120 10 71 0 100 -3 90 -10z m360 0 c0 -6 -42 -10 -106 -10 -67 0 -103 4
-99 10 3 6 50 10 106 10 59 0 99 -4 99 -10z m365 0 c-3 -6 -50 -10 -106 -10
-59 0 -99 4 -99 10 0 6 42 10 106 10 67 0 103 -4 99 -10z m365 0 c0 -6 -40
-10 -99 -10 -56 0 -103 4 -106 10 -4 6 32 10 99 10 64 0 106 -4 106 -10z m365
0 c4 -6 -30 -10 -94 -10 -56 0 -103 4 -106 10 -4 6 30 10 94 10 56 0 103 -4
106 -10z m202 -22 c-3 -7 -5 -2 -5 12 0 14 2 19 5 13 2 -7 2 -19 0 -25z
m-1707 -8 c-20 -13 -223 -13 -215 0 4 6 54 10 118 10 76 0 107 -3 97 -10z
m385 0 c-8 -12 -215 -12 -215 0 0 6 47 10 111 10 68 0 108 -4 104 -10z m385 0
c0 -6 -44 -10 -111 -10 -71 0 -108 4 -104 10 3 6 52 10 111 10 63 0 104 -4
104 -10z m390 0 c0 -6 -41 -10 -104 -10 -59 0 -108 4 -111 10 -4 6 33 10 104
10 67 0 111 -4 111 -10z m385 1 c7 -13 -195 -13 -215 -1 -10 7 22 10 97 10 61
0 114 -4 118 -9z m188 -65 c12 -3 55 -6 95 -6 63 0 72 -2 72 -18 0 -10 5 -23
12 -30 16 -16 -164 -17 -193 -2 -13 7 -19 7 -19 0 0 -7 -94 -10 -280 -10 -273
0 -280 0 -280 20 0 19 7 20 143 21 78 1 196 3 262 5 72 1 125 -1 132 -8 9 -8
14 0 20 34 5 26 9 35 11 22 2 -12 13 -25 25 -28z m427 -30 l-22 -36 -84 0
c-77 0 -84 2 -76 18 5 9 7 23 5 30 -3 7 4 12 19 13 13 0 53 1 90 2 36 1 70 5
74 10 18 17 14 -5 -6 -37z m-192 1 c4 -20 -25 -34 -40 -19 -15 15 -1 44 19 40
10 -2 19 -11 21 -21z m-1398 -15 l0 -22 -497 2 c-461 3 -498 4 -501 20 -4 21
41 23 605 23 l393 0 0 -23z m553 -2 c-5 -19 -14 -20 -269 -20 -257 0 -264 1
-264 20 0 20 7 20 269 20 264 0 269 0 264 -20z"/>
<path d="M2210 207 c8 -8 26 -18 40 -21 14 -3 19 -3 11 0 -11 5 -11 8 0 15 10
6 8 9 -8 9 -12 0 -30 3 -40 6 -16 6 -16 5 -3 -9z"/>
<path d="M802 113 c267 -2 708 -2 980 0 271 1 52 2 -487 2 -539 0 -761 -1
-493 -2z"/>
<path d="M1377 1760 c-70 -18 -80 -24 -135 -74 -36 -33 -86 -120 -79 -139 2
-6 17 14 34 44 61 108 151 162 268 162 116 0 221 -67 266 -169 11 -24 24 -44
29 -44 8 0 -9 70 -20 80 -3 3 -20 24 -38 47 -40 51 -134 100 -207 106 -30 3
-77 -2 -118 -13z"/>
<path d="M2736 1764 c-10 -25 4 -37 20 -17 17 23 17 33 0 33 -8 0 -17 -7 -20
-16z"/>
<path d="M2495 1699 c-4 -11 -4 -23 0 -27 7 -7 25 17 25 36 0 20 -18 14 -25
-9z"/>
<path d="M2660 1635 c-6 -8 -8 -20 -4 -26 5 -9 11 -7 21 6 23 33 9 51 -17 20z"/>
<path d="M2422 1578 c-14 -14 -16 -38 -2 -38 13 0 32 38 22 44 -5 3 -14 0 -20
-6z"/>
<path d="M1170 1465 l0 -65 285 0 c157 0 288 0 293 0 9 0 15 77 7 107 l-5 23
-290 0 -290 0 0 -65z m244 37 c15 -2 16 -5 7 -16 -7 -8 -9 -25 -5 -40 l6 -26
-116 0 -116 0 0 43 0 42 103 -1 c56 0 110 -2 121 -2z m317 -11 c1 -9 2 -27 2
-41 l1 -25 -119 -3 -120 -3 -1 43 -1 43 119 1 c100 0 118 -2 119 -15z m-253
-26 c5 -22 -18 -37 -35 -23 -17 13 -17 35 0 41 19 8 32 2 35 -18z"/>
<path d="M2572 1508 c-16 -16 -15 -28 3 -28 8 0 15 2 15 4 0 2 3 11 6 20 7 19
-7 21 -24 4z"/>
<path d="M2480 1395 c-19 -23 -7 -39 13 -17 10 11 14 23 9 26 -5 3 -15 -1 -22
-9z"/>
<path d="M1061 1365 c-1 -10 -13 -29 -28 -41 l-27 -21 37 -70 36 -69 -27 -16
c-23 -14 -32 -14 -58 -3 -17 7 -34 22 -37 34 -4 18 -13 21 -57 21 -62 0 -86
-11 -94 -44 -7 -30 -58 -51 -87 -35 -16 8 -24 4 -45 -18 -47 -50 -57 -71 -49
-100 12 -40 7 -66 -17 -85 -20 -18 -20 -18 6 -18 18 0 26 5 26 18 0 9 7 29 14
44 14 25 13 29 -6 42 -20 14 -20 15 18 60 34 40 40 44 54 31 14 -12 21 -11 62
8 38 18 45 26 41 43 -4 17 1 22 28 28 61 12 87 8 91 -15 4 -32 85 -55 110 -33
15 15 21 13 62 -22 41 -34 44 -39 30 -55 -13 -15 -12 -21 8 -60 18 -35 28 -43
46 -41 17 3 22 -1 22 -20 0 -13 3 -40 6 -60 6 -35 5 -38 -17 -38 -20 0 -27 -9
-40 -50 -15 -47 -14 -51 3 -62 18 -12 16 -16 -20 -60 -35 -41 -41 -45 -54 -32
-13 14 -20 13 -62 -8 -40 -19 -46 -26 -41 -45 5 -20 2 -23 -24 -23 -15 0 -42
-3 -59 -6 -26 -5 -31 -3 -34 16 -2 16 -16 27 -51 40 -47 18 -47 18 -62 -3 -14
-20 -15 -20 -58 20 -38 35 -42 43 -31 58 11 14 9 25 -9 62 -18 36 -26 44 -44
40 -16 -3 -23 1 -26 17 -4 19 -4 19 -6 -2 -1 -16 6 -26 19 -29 28 -8 51 -55
44 -91 -5 -25 0 -34 37 -65 42 -37 72 -46 84 -27 10 17 59 -1 83 -31 20 -25
28 -27 77 -25 57 3 85 18 85 45 0 9 14 22 30 30 26 11 33 11 47 0 14 -12 21
-7 59 36 45 50 53 72 33 92 -17 17 6 76 33 88 13 6 23 18 22 28 0 9 -1 37 -2
63 -2 40 -5 46 -31 55 -36 13 -60 62 -43 89 9 16 4 25 -35 60 -26 23 -48 49
-49 57 -2 9 -17 43 -35 76 -34 64 -35 59 14 92 11 7 13 16 7 30 -8 20 -9 20
-9 0z"/>
<path d="M1186 1360 c24 -95 133 -180 249 -195 61 -8 155 19 208 59 39 30 82
89 91 126 4 14 -5 4 -18 -21 -52 -96 -148 -153 -257 -152 -110 2 -199 57 -254
161 -14 26 -23 36 -19 22z"/>
<path d="M1904 1311 c-16 -57 -18 -60 -43 -56 l-26 5 24 -10 c14 -6 28 -7 33
-2 10 10 39 114 33 120 -2 2 -11 -24 -21 -57z"/>
<path d="M2218 1349 c-22 -12 -23 -42 -2 -59 13 -11 19 -9 41 13 22 22 24 28
13 41 -14 18 -28 20 -52 5z m30 -35 c-24 -24 -44 -7 -22 17 12 13 21 16 28 9
7 -7 5 -15 -6 -26z"/>
<path d="M1799 1238 c-12 -18 -35 -47 -51 -64 -29 -31 -29 -33 -14 -60 8 -16
15 -25 16 -21 0 5 -5 17 -11 28 -8 17 -2 28 40 76 46 51 60 73 47 73 -3 0 -15
-15 -27 -32z"/>
<path d="M2107 1232 c-21 -23 -21 -36 -3 -51 28 -24 78 27 55 55 -16 19 -33
18 -52 -4z m43 -5 c0 -14 -20 -37 -32 -37 -12 0 -10 24 4 38 16 16 28 15 28
-1z"/>
<path d="M1120 1189 l-25 -19 24 8 c21 7 34 1 83 -37 52 -41 57 -49 53 -76
l-5 -30 15 30 c13 28 12 31 -8 45 -12 8 -42 34 -67 57 l-45 42 -25 -20z"/>
<path d="M2245 1194 c-9 -9 -15 -24 -13 -33 5 -24 41 -25 62 -2 15 17 16 23 6
36 -16 19 -34 19 -55 -1z m45 -13 c0 -15 -28 -33 -40 -26 -8 5 -8 11 1 21 13
15 39 19 39 5z"/>
<path d="M230 1156 c0 -12 -10 -16 -38 -16 -21 0 -43 5 -48 10 -8 8 -19 7 -37
-1 -29 -13 -34 -24 -17 -34 7 -4 -1 -19 -19 -37 -16 -17 -34 -27 -39 -24 -6 3
-15 -8 -21 -26 -14 -39 -14 -38 3 -38 20 0 27 -79 8 -89 -12 -7 -12 -12 3 -34
9 -15 22 -23 30 -21 8 3 24 -4 36 -15 13 -12 26 -21 30 -21 4 0 5 -8 2 -19 -6
-25 46 -40 59 -17 10 18 84 22 90 5 6 -18 59 12 54 30 -6 20 40 75 58 68 8 -3
17 7 23 28 9 28 8 34 -4 37 -21 4 -28 77 -8 84 19 8 -14 65 -35 59 -21 -6 -71
40 -64 59 4 10 1 16 -7 16 -8 0 -24 3 -36 6 -17 5 -23 2 -23 -10z m34 -30 c-3
-9 -12 -12 -22 -9 -15 6 -9 11 25 22 1 1 0 -5 -3 -13z m-119 -5 c3 -6 -3 -15
-14 -20 -16 -9 -18 -8 -14 9 6 21 18 26 28 11z m113 -35 c56 -29 77 -63 77
-123 0 -50 -3 -57 -37 -88 -47 -43 -81 -52 -132 -34 -52 18 -86 67 -86 123 0
97 97 164 178 122z m112 -42 c0 -7 -4 -16 -10 -19 -5 -3 -10 -4 -10 -1 0 2 -2
11 -5 19 -4 8 0 14 10 14 8 0 15 -6 15 -13z m-312 -33 c-4 -19 -22 -18 -26 2
-2 7 4 14 13 14 9 0 15 -7 13 -16z m314 -103 c-6 -6 -15 -8 -19 -3 -5 4 -2 10
5 12 6 3 9 10 6 16 -5 8 -2 8 7 0 10 -10 10 -16 1 -25z m-299 -17 c4 -18 2
-19 -32 -12 -4 1 20 31 24 31 1 0 5 -9 8 -19z m227 -76 c0 -8 -4 -15 -9 -15
-5 0 -11 7 -15 15 -3 9 0 15 9 15 8 0 15 -7 15 -15z m-126 -10 c-4 -8 -10 -15
-15 -15 -5 0 -9 7 -9 15 0 8 7 15 15 15 9 0 12 -6 9 -15z"/>
<path d="M1986 1128 c-15 -21 -15 -24 4 -42 19 -19 20 -19 40 -1 12 10 20 28
18 39 -4 30 -42 32 -62 4z m44 -23 c-15 -18 -40 -20 -40 -4 0 7 8 18 18 25 22
16 40 1 22 -21z"/>
<path d="M2115 1091 c-7 -22 2 -48 20 -55 19 -7 57 37 49 57 -9 24 -61 22 -69
-2z m55 -6 c0 -19 -36 -39 -45 -24 -4 6 1 17 11 24 24 18 34 19 34 0z"/>
<path d="M1676 1044 c-32 -19 -59 -34 -61 -34 -1 0 -8 14 -15 30 -12 30 -14
31 -59 23 -25 -4 -63 -8 -83 -7 -34 0 -39 -3 -49 -33 -6 -18 -11 -33 -12 -33
-1 0 -31 9 -66 20 -35 11 -66 18 -68 16 -4 -4 119 -46 134 -46 2 0 10 14 17
31 12 28 17 31 72 35 32 2 66 6 76 9 12 4 22 -3 33 -24 8 -17 17 -31 20 -31 6
0 119 62 130 71 20 19 -12 6 -69 -27z"/>
<path d="M1866 1041 c-16 -17 -16 -22 -4 -39 19 -28 24 -29 47 -8 25 23 27 51
5 60 -24 9 -29 8 -48 -13z m40 -27 c-25 -18 -36 -18 -36 1 0 19 32 37 45 24 7
-7 4 -15 -9 -25z"/>
<path d="M874 1040 c-139 -31 -193 -200 -96 -304 71 -75 193 -75 264 0 53 57
63 137 27 211 -33 68 -121 110 -195 93z m110 -35 c57 -27 81 -71 80 -143 -1
-102 -56 -157 -154 -157 -67 1 -99 18 -138 76 -31 45 -28 131 7 175 47 61 135
82 205 49z"/>
<path d="M2002 1014 c-26 -18 -28 -30 -7 -51 14 -13 18 -13 40 1 28 19 33 51
9 60 -20 8 -16 9 -42 -10z m48 -14 c0 -9 -31 -30 -44 -30 -12 0 -6 28 7 33 20
9 37 8 37 -3z"/>
<path d="M1735 964 c-15 -11 -17 -18 -9 -32 16 -25 51 -27 63 -3 23 42 -13 66
-54 35z m52 -11 c5 -14 -32 -27 -48 -18 -6 5 -4 12 8 21 20 15 35 14 40 -3z"/>
<path d="M1859 934 c-9 -11 -10 -20 -2 -32 22 -35 80 -11 68 28 -8 24 -47 27
-66 4z m54 -1 c11 -10 -13 -33 -34 -33 -24 0 -25 16 -1 29 20 12 27 13 35 4z"/>
<path d="M1601 919 c-18 -7 -22 -15 -19 -34 3 -14 -1 -30 -8 -36 -34 -28 1
-69 42 -50 20 9 25 17 20 33 -3 14 1 30 11 41 13 13 14 22 7 34 -13 22 -24 24
-53 12z m44 -18 c9 -16 -35 -35 -48 -22 -9 9 -8 14 3 21 19 12 37 13 45 1z
m-17 -73 c-3 -7 -15 -13 -28 -13 -13 0 -25 6 -27 13 -3 8 6 12 27 12 21 0 30
-4 28 -12z"/>
<path d="M1443 913 c-21 -8 -15 -51 9 -67 20 -14 24 -14 40 1 19 17 22 31 10
49 -9 14 -43 24 -59 17z m44 -21 c8 -5 7 -12 -3 -27 -15 -20 -15 -20 -30 -1
-8 11 -14 23 -14 28 0 10 31 10 47 0z"/>
<path d="M2021 905 c-153 -49 -190 -255 -62 -347 68 -49 142 -54 217 -15 17 9
35 13 40 9 5 -4 6 -3 1 2 -4 5 3 20 15 34 21 21 23 34 23 122 0 112 -12 138
-81 177 -53 29 -101 35 -153 18z m144 -44 c94 -54 110 -188 31 -267 -105 -105
-286 -28 -286 121 0 130 142 212 255 146z"/>
<path d="M2070 860 c0 -5 5 -10 10 -10 6 0 10 5 10 10 0 6 -4 10 -10 10 -5 0
-10 -4 -10 -10z"/>
<path d="M2070 788 l0 -52 -30 29 c-40 39 -50 24 -12 -19 16 -19 32 -40 34
-47 3 -8 11 -10 22 -6 13 5 17 14 12 30 -3 12 -6 43 -6 70 0 26 -4 47 -10 47
-5 0 -10 -23 -10 -52z"/>
<path d="M1920 710 c0 -5 5 -10 10 -10 6 0 10 5 10 10 0 6 -4 10 -10 10 -5 0
-10 -4 -10 -10z"/>
<path d="M2220 710 c0 -5 5 -10 10 -10 6 0 10 5 10 10 0 6 -4 10 -10 10 -5 0
-10 -4 -10 -10z"/>
<path d="M2070 560 c0 -5 5 -10 10 -10 6 0 10 5 10 10 0 6 -4 10 -10 10 -5 0
-10 -4 -10 -10z"/>
<path d="M1720 875 c-19 -23 0 -51 31 -47 45 5 52 55 8 60 -15 2 -32 -4 -39
-13z m55 -5 c7 -12 -42 -36 -53 -26 -4 4 2 14 12 22 23 17 33 18 41 4z"/>
</g>
</svg>
